<svg width="20" height="15" viewBox="0 0 20 15" fill="none" xmlns="http://www.w3.org/2000/svg">
<path fill-rule="evenodd" clip-rule="evenodd" d="M2.31428 3.56053L2.48082 3.81667V4.12216V13.2252C2.48082 14.1738 3.24981 14.9428 4.19842 14.9428H18.2824C19.231 14.9428 20 14.1738 20 13.2252V1.71757C20 0.768979 19.231 0 18.2824 0H0L2.31428 3.56053ZM5.57244 9.79013C5.57244 8.93643 6.26452 8.24432 7.11825 8.24432H12.271C13.1246 8.24432 13.8168 8.93643 13.8168 9.79013C13.8168 10.6438 13.1246 11.3359 12.271 11.3359H7.11825C6.26452 11.3359 5.57244 10.6438 5.57244 9.79013ZM7.11825 3.09162C6.26452 3.09162 5.57244 3.7837 5.57244 4.63743C5.57244 5.49113 6.26452 6.18324 7.11825 6.18324H14.332C15.1857 6.18324 15.8778 5.49113 15.8778 4.63743C15.8778 3.7837 15.1857 3.09162 14.332 3.09162H7.11825Z" fill="#AEBAC1"/>
</svg>
