<svg width="15" height="15" viewBox="0 0 15 15" fill="none" xmlns="http://www.w3.org/2000/svg">
<path d="M10.7196 9.432H10.0389L9.80341 9.19759C10.6394 8.22249 11.1478 6.9584 11.1478 5.57336C11.1478 2.495 8.65171 0 5.57443 0C2.49608 0 0 2.495 0 5.57336C0 8.65171 2.495 11.1478 5.57443 11.1478C6.9584 11.1478 8.22249 10.6404 9.19759 9.80448L9.43414 10.04V10.7196L13.7199 15L14.9979 13.7209L10.7196 9.432ZM5.57336 9.432C3.44227 9.432 1.71471 7.70444 1.71471 5.57336C1.71471 3.44227 3.44227 1.71471 5.57336 1.71471C7.70444 1.71471 9.432 3.44227 9.432 5.57336C9.432 7.70444 7.70444 9.432 5.57336 9.432Z" fill="#8696A0"/>
</svg>
