<svg width="16" height="16" viewBox="0 0 16 16" fill="none" xmlns="http://www.w3.org/2000/svg">
<path fill-rule="evenodd" clip-rule="evenodd" d="M14.595 6.23978L15.7696 7.43025L15.7615 7.42221C16.0795 7.74022 16.0795 8.2538 15.7614 8.5718L14.5868 9.7623L15.011 11.3849C15.117 11.817 14.8641 12.2655 14.4318 12.3797L12.8167 12.82L12.3762 14.4345C12.2539 14.8666 11.8134 15.1275 11.3811 15.0134L9.7578 14.5894L8.5669 15.7635C8.4119 15.9185 8.1998 16 7.99592 16C7.792 16 7.57991 15.9185 7.42493 15.7635L6.234 14.5894L4.61076 15.0134C4.17844 15.1275 3.7298 14.8666 3.6156 14.4345L3.17512 12.82L1.56003 12.3797C1.13587 12.2574 0.87484 11.817 0.98904 11.3849L1.4132 9.7623L0.23859 8.5718C-0.07953 8.2538 -0.07953 7.74009 0.23859 7.42209L1.4132 6.23162L0.98904 4.60899C0.87484 4.17684 1.12771 3.72837 1.56003 3.61422L3.17512 3.17391L3.6156 1.55943C3.73796 1.13543 4.17844 0.87451 4.61076 0.98866L6.234 1.41266L7.42493 0.2385C7.74305 -0.0795 8.2569 -0.0795 8.5751 0.2385L9.766 1.41266L11.3892 0.98866C11.8216 0.88266 12.2702 1.13543 12.3844 1.56759L12.8249 3.18206L14.44 3.62237C14.8723 3.74468 15.1333 4.18499 15.0191 4.61715L14.595 6.23978ZM7.37506 10.7678C7.21482 10.9279 7.01452 11 6.80621 11C6.5979 11 6.3976 10.9199 6.23736 10.7678L4.23435 8.7658C3.92188 8.4535 3.92188 7.94895 4.23435 7.63664C4.54682 7.32432 5.05158 7.32432 5.36405 7.63664L6.7982 9.0701L10.636 5.23423C10.9484 4.92192 11.4532 4.92192 11.7656 5.23423C12.0781 5.54655 12.0781 6.05105 11.7656 6.36336L9.5784 8.5656L7.37506 10.7678Z" fill="#007BFC"/>
</svg>
